<svg width="24" height="24" viewBox="0 0 24 24" fill="none" xmlns="http://www.w3.org/2000/svg">
<path d="M18.815 2H5.8818C5.64801 2.00025 5.42386 2.09498 5.25854 2.26342C5.09323 2.43186 5.00024 2.66023 5 2.89844V21.1016C5.00024 21.3398 5.09323 21.5681 5.25854 21.7366C5.42386 21.905 5.64801 21.9998 5.8818 22H18.8148C19.0486 21.9998 19.2728 21.905 19.4381 21.7366C19.6034 21.5681 19.6964 21.3398 19.6966 21.1016V2.89844C19.6964 2.66026 19.6034 2.43191 19.4381 2.26348C19.2728 2.09504 19.0487 2.00029 18.815 2V2ZM19.16 21.1016C19.1599 21.1948 19.1235 21.2841 19.0588 21.35C18.9941 21.4159 18.9064 21.453 18.815 21.4531H5.8818C5.79032 21.453 5.70263 21.4159 5.63795 21.35C5.57326 21.2841 5.53687 21.1948 5.53675 21.1016V2.89844C5.53687 2.80524 5.57326 2.71589 5.63795 2.64998C5.70263 2.58408 5.79032 2.547 5.8818 2.54688H18.8148C18.9063 2.547 18.994 2.58408 19.0587 2.64998C19.1233 2.71589 19.1597 2.80524 19.1599 2.89844L19.16 21.1016Z" fill="white"/>
<path d="M17.3958 18.4774L15.8605 17.2535C15.8133 17.2158 15.7551 17.1953 15.6952 17.1953H9.00165C8.94167 17.1953 8.88341 17.2158 8.83618 17.2535L7.30139 18.4774C7.26932 18.5029 7.24339 18.5356 7.22556 18.5729C7.20773 18.6102 7.19847 18.6512 7.19849 18.6927V19.9167C7.19849 19.9893 7.22676 20.0588 7.27709 20.1101C7.32742 20.1614 7.39568 20.1902 7.46686 20.1902H17.2305C17.3016 20.1902 17.3699 20.1614 17.4202 20.1101C17.4706 20.0588 17.4988 19.9893 17.4988 19.9167V18.6927C17.4988 18.6512 17.4895 18.6102 17.4717 18.5729C17.4538 18.5356 17.4279 18.5029 17.3958 18.4774ZM16.9621 19.6433H7.73523V18.826L9.09428 17.7422H15.6032L16.9621 18.826V19.6433Z" fill="white"/>
<path d="M17.6074 3.0947C17.4066 3.0947 17.2103 3.15535 17.0434 3.26899C16.8765 3.38263 16.7464 3.54416 16.6696 3.73314C16.5927 3.92212 16.5726 4.13006 16.6118 4.33068C16.651 4.5313 16.7476 4.71558 16.8896 4.86022C17.0316 5.00486 17.2124 5.10336 17.4093 5.14326C17.6062 5.18317 17.8103 5.16269 17.9958 5.08441C18.1813 5.00613 18.3398 4.87357 18.4514 4.7035C18.5629 4.53342 18.6224 4.33346 18.6224 4.12891C18.6221 3.85472 18.515 3.59186 18.3248 3.39798C18.1345 3.2041 17.8765 3.09503 17.6074 3.0947V3.0947ZM17.6074 4.61626C17.5128 4.61626 17.4203 4.58768 17.3416 4.53413C17.263 4.48058 17.2016 4.40446 17.1654 4.31541C17.1292 4.22636 17.1198 4.12837 17.1382 4.03384C17.1567 3.9393 17.2022 3.85247 17.2691 3.78431C17.336 3.71615 17.4213 3.66974 17.514 3.65094C17.6068 3.63213 17.703 3.64178 17.7904 3.67867C17.8778 3.71555 17.9525 3.77802 18.0051 3.85816C18.0576 3.9383 18.0857 4.03253 18.0857 4.12891C18.0855 4.25812 18.0351 4.38198 17.9454 4.47334C17.8557 4.5647 17.7342 4.61609 17.6074 4.61626Z" fill="white"/>
<path d="M8.10484 4.12892C8.10484 3.92437 8.04531 3.72441 7.93377 3.55433C7.82223 3.38426 7.6637 3.2517 7.47822 3.17342C7.29274 3.09514 7.08865 3.07466 6.89174 3.11457C6.69484 3.15447 6.51397 3.25297 6.37201 3.39761C6.23005 3.54225 6.13338 3.72653 6.09421 3.92715C6.05505 4.12777 6.07515 4.33572 6.15197 4.52469C6.2288 4.71367 6.35891 4.8752 6.52583 4.98884C6.69276 5.10248 6.88901 5.16313 7.08977 5.16313C7.35889 5.1628 7.61688 5.05374 7.80717 4.85985C7.99747 4.66597 8.10451 4.40311 8.10484 4.12892V4.12892ZM6.6113 4.12892C6.6113 4.03253 6.63935 3.93832 6.6919 3.85818C6.74445 3.77804 6.81915 3.71557 6.90654 3.67868C6.99393 3.64179 7.0901 3.63213 7.18288 3.65092C7.27566 3.66972 7.36089 3.71612 7.42779 3.78426C7.49469 3.8524 7.54026 3.93922 7.55873 4.03374C7.5772 4.12827 7.56775 4.22625 7.53157 4.31531C7.49539 4.40436 7.43411 4.48048 7.35547 4.53405C7.27683 4.58762 7.18437 4.61623 7.08977 4.61626C6.96294 4.61614 6.84133 4.56476 6.75163 4.47339C6.66193 4.38203 6.61146 4.25814 6.6113 4.12892V4.12892Z" fill="white"/>
<path d="M12.3486 3.82819C11.194 3.82796 10.0688 4.199 9.1332 4.88845C8.19763 5.57789 7.49948 6.55057 7.1382 7.66792C6.77692 8.78526 6.77094 9.99027 7.12112 11.1113C7.47129 12.2323 8.15976 13.2121 9.08844 13.9112L7.35934 14.6804C7.31158 14.7016 7.27091 14.7366 7.24232 14.781C7.21372 14.8254 7.19844 14.8773 7.19832 14.9304V16.2443C7.19832 16.3168 7.22659 16.3864 7.27692 16.4376C7.32725 16.4889 7.39552 16.5177 7.46669 16.5177H9.69036C9.76137 16.5176 9.82941 16.4887 9.8796 16.4376L11.3725 14.9165C12.1224 15.0554 12.8924 15.0336 13.6335 14.8524C14.3746 14.6713 15.0706 14.3348 15.677 13.8644C16.2834 13.394 16.7869 12.8 17.1555 12.1203C17.524 11.4406 17.7495 10.6901 17.8176 9.91671C17.8857 9.14329 17.7949 8.3639 17.5509 7.62824C17.3069 6.89257 16.9152 6.21678 16.4006 5.64394C15.8861 5.0711 15.26 4.61379 14.5624 4.30116C13.8647 3.98853 13.1108 3.82745 12.3486 3.82819V3.82819ZM9.57918 15.9715H7.73522V15.1094L9.74879 14.2135L12.5092 12.9854L9.57918 15.9715ZM12.3486 14.4605C12.181 14.4605 12.0135 14.4519 11.8467 14.4348L13.8929 12.3496C13.9367 12.3045 13.9637 12.2452 13.9693 12.1821C13.9748 12.1189 13.9587 12.0557 13.9236 12.0033C13.8885 11.9509 13.8366 11.9126 13.7768 11.8949C13.717 11.8772 13.6531 11.8812 13.5959 11.9063L9.66398 13.6563C8.66335 12.9992 7.92862 11.9968 7.59444 10.8326C7.26027 9.66848 7.34903 8.42063 7.84445 7.31774C8.33988 6.21485 9.2088 5.3308 10.292 4.82759C11.3751 4.32438 12.6 4.23571 13.7421 4.57785C14.8842 4.91998 15.8671 5.66999 16.5106 6.69044C17.1541 7.71089 17.4151 8.93342 17.2458 10.134C17.0765 11.3346 16.4883 12.4328 15.5888 13.2274C14.6894 14.0221 13.5391 14.4598 12.3486 14.4605V14.4605Z" fill="white"/>
<path d="M12.3483 7.81592C12.0374 7.81592 11.7335 7.90985 11.475 8.08583C11.2165 8.26181 11.015 8.51194 10.896 8.80459C10.777 9.09724 10.7459 9.41926 10.8066 9.72993C10.8672 10.0406 11.0169 10.326 11.2368 10.55C11.4566 10.7739 11.7367 10.9265 12.0416 10.9883C12.3465 11.0501 12.6626 11.0183 12.9498 10.8971C13.237 10.7759 13.4825 10.5706 13.6553 10.3073C13.828 10.0439 13.9202 9.73424 13.9202 9.41748C13.9197 8.99286 13.754 8.58576 13.4593 8.28551C13.1646 7.98525 12.765 7.81637 12.3483 7.81592V7.81592ZM12.3483 10.4722C12.1435 10.4722 11.9434 10.4103 11.7732 10.2944C11.6029 10.1785 11.4703 10.0138 11.3919 9.82109C11.3136 9.62837 11.2931 9.41631 11.333 9.21172C11.3729 9.00713 11.4715 8.8192 11.6163 8.6717C11.7611 8.5242 11.9455 8.42375 12.1463 8.38306C12.3471 8.34236 12.5553 8.36325 12.7444 8.44308C12.9336 8.5229 13.0952 8.65809 13.209 8.83153C13.3227 9.00497 13.3834 9.20888 13.3834 9.41748C13.3831 9.6971 13.2739 9.96517 13.0799 10.1629C12.8858 10.3606 12.6227 10.4718 12.3483 10.4722Z" fill="white"/>
<path d="M12.3485 5.57819C12.2773 5.57819 12.209 5.60699 12.1587 5.65827C12.1084 5.70955 12.0801 5.7791 12.0801 5.85162C12.0801 5.92414 12.1084 5.99369 12.1587 6.04497C12.209 6.09625 12.2773 6.12506 12.3485 6.12506C13.2052 6.1261 14.0265 6.47333 14.6322 7.09058C15.2379 7.70784 15.5786 8.5447 15.5795 9.41756C15.5795 9.49008 15.6078 9.55963 15.6581 9.61091C15.7085 9.66219 15.7767 9.691 15.8479 9.691C15.9191 9.691 15.9873 9.66219 16.0377 9.61091C16.088 9.55963 16.1163 9.49008 16.1163 9.41756C16.1151 8.39973 15.7178 7.42392 15.0115 6.70416C14.3051 5.9844 13.3474 5.57947 12.3485 5.57819Z" fill="white"/>
</svg>
