<svg width="24" height="24" viewBox="0 0 24 24" fill="none" xmlns="http://www.w3.org/2000/svg">
<path d="M15.5127 7.07995C15.4665 7.03379 15.404 7.00785 15.3387 7.00781H7.25391C7.18864 7.00781 7.12604 7.03374 7.07989 7.07989C7.03374 7.12604 7.00781 7.18864 7.00781 7.25391V15.3387C7.00785 15.404 7.03379 15.4665 7.07995 15.5127L8.48733 16.92C8.53345 16.9662 8.59603 16.9922 8.66128 16.9922H16.7461C16.8114 16.9922 16.874 16.9663 16.9201 16.9201C16.9663 16.874 16.9922 16.8114 16.9922 16.7461V8.66128C16.9922 8.59603 16.9662 8.53345 16.92 8.48733L15.5127 7.07995ZM16.5 16.5H8.76323L7.5 15.2368V7.5H15.2368L16.5 8.76323V16.5Z" fill="white"/>
<path d="M20.2793 10.4004C20.4704 10.4004 20.6538 10.3245 20.7889 10.1893C20.9241 10.0541 21 9.87083 21 9.67969C21 9.48855 20.9241 9.30523 20.7889 9.17007C20.6538 9.03492 20.4704 8.95898 20.2793 8.95898H18.3984V8.08008H20.2793C20.4704 8.08008 20.6538 8.00415 20.7889 7.86899C20.9241 7.73383 21 7.55052 21 7.35938C21 7.16823 20.9241 6.98492 20.7889 6.84976C20.6538 6.7146 20.4704 6.63867 20.2793 6.63867H18.3984V5.84766C18.3984 5.78239 18.3725 5.71979 18.3264 5.67364C18.2802 5.62749 18.2176 5.60156 18.1523 5.60156H17.3613V3.7207C17.3613 3.52956 17.2854 3.34625 17.1502 3.21109C17.0151 3.07593 16.8318 3 16.6406 3C16.4495 3 16.2662 3.07593 16.131 3.21109C15.9959 3.34625 15.9199 3.52956 15.9199 3.7207V5.60156H15.041V3.7207C15.041 3.52956 14.9651 3.34625 14.8299 3.21109C14.6948 3.07593 14.5115 3 14.3203 3C14.1292 3 13.9459 3.07593 13.8107 3.21109C13.6755 3.34625 13.5996 3.52956 13.5996 3.7207V5.60156H12.7207V3.7207C12.7207 3.52956 12.6448 3.34625 12.5096 3.21109C12.3745 3.07593 12.1911 3 12 3C11.8089 3 11.6255 3.07593 11.4904 3.21109C11.3552 3.34625 11.2793 3.52956 11.2793 3.7207V5.60156H10.4004V3.7207C10.4004 3.52956 10.3245 3.34625 10.1893 3.21109C10.0541 3.07593 9.87083 3 9.67969 3C9.48855 3 9.30523 3.07593 9.17007 3.21109C9.03492 3.34625 8.95898 3.52956 8.95898 3.7207V5.60156H8.08008V3.7207C8.08008 3.52956 8.00415 3.34625 7.86899 3.21109C7.73383 3.07593 7.55052 3 7.35938 3C7.16823 3 6.98492 3.07593 6.84976 3.21109C6.7146 3.34625 6.63867 3.52956 6.63867 3.7207V5.60156H5.84766C5.78239 5.60156 5.71979 5.62749 5.67364 5.67364C5.62749 5.71979 5.60156 5.78239 5.60156 5.84766V6.63867H3.7207C3.52956 6.63867 3.34625 6.7146 3.21109 6.84976C3.07593 6.98492 3 7.16823 3 7.35938C3 7.55052 3.07593 7.73383 3.21109 7.86899C3.34625 8.00415 3.52956 8.08008 3.7207 8.08008H5.60156V8.95898H3.7207C3.52956 8.95898 3.34625 9.03492 3.21109 9.17007C3.07593 9.30523 3 9.48855 3 9.67969C3 9.87083 3.07593 10.0541 3.21109 10.1893C3.34625 10.3245 3.52956 10.4004 3.7207 10.4004H5.60156V11.2793H3.7207C3.52956 11.2793 3.34625 11.3552 3.21109 11.4904C3.07593 11.6255 3 11.8089 3 12C3 12.1911 3.07593 12.3745 3.21109 12.5096C3.34625 12.6448 3.52956 12.7207 3.7207 12.7207H5.60156V13.5996H3.7207C3.52956 13.5996 3.34625 13.6755 3.21109 13.8107C3.07593 13.9459 3 14.1292 3 14.3203C3 14.5115 3.07593 14.6948 3.21109 14.8299C3.34625 14.9651 3.52956 15.041 3.7207 15.041H5.60156V15.9199H3.7207C3.52956 15.9199 3.34625 15.9959 3.21109 16.131C3.07593 16.2662 3 16.4495 3 16.6406C3 16.8318 3.07593 17.0151 3.21109 17.1502C3.34625 17.2854 3.52956 17.3613 3.7207 17.3613H5.60156V18.1523C5.60156 18.2176 5.62749 18.2802 5.67364 18.3264C5.71979 18.3725 5.78239 18.3984 5.84766 18.3984H6.63867V20.2793C6.63867 20.4704 6.7146 20.6538 6.84976 20.7889C6.98492 20.9241 7.16823 21 7.35938 21C7.55052 21 7.73383 20.9241 7.86899 20.7889C8.00415 20.6538 8.08008 20.4704 8.08008 20.2793V18.3984H8.95898V20.2793C8.95898 20.4704 9.03492 20.6538 9.17007 20.7889C9.30523 20.9241 9.48855 21 9.67969 21C9.87083 21 10.0541 20.9241 10.1893 20.7889C10.3245 20.6538 10.4004 20.4704 10.4004 20.2793V18.3984H11.2793V20.2793C11.2793 20.4704 11.3552 20.6538 11.4904 20.7889C11.6255 20.9241 11.8089 21 12 21C12.1911 21 12.3745 20.9241 12.5096 20.7889C12.6448 20.6538 12.7207 20.4704 12.7207 20.2793V18.3984H13.5996V20.2793C13.5996 20.4704 13.6755 20.6538 13.8107 20.7889C13.9459 20.9241 14.1292 21 14.3203 21C14.5115 21 14.6948 20.9241 14.8299 20.7889C14.9651 20.6538 15.041 20.4704 15.041 20.2793V18.3984H15.9199V20.2793C15.9199 20.4704 15.9959 20.6538 16.131 20.7889C16.2662 20.9241 16.4495 21 16.6406 21C16.8318 21 17.0151 20.9241 17.1502 20.7889C17.2854 20.6538 17.3613 20.4704 17.3613 20.2793V18.3984H18.1523C18.2176 18.3984 18.2802 18.3725 18.3264 18.3264C18.3725 18.2802 18.3984 18.2176 18.3984 18.1523V17.3613H20.2793C20.4704 17.3613 20.6538 17.2854 20.7889 17.1502C20.9241 17.0151 21 16.8318 21 16.6406C21 16.4495 20.9241 16.2662 20.7889 16.131C20.6538 15.9959 20.4704 15.9199 20.2793 15.9199H18.3984V15.041H20.2793C20.4704 15.041 20.6538 14.9651 20.7889 14.8299C20.9241 14.6948 21 14.5115 21 14.3203C21 14.1292 20.9241 13.9459 20.7889 13.8107C20.6538 13.6755 20.4704 13.5996 20.2793 13.5996H18.3984V12.7207H20.2793C20.4704 12.7207 20.6538 12.6448 20.7889 12.5096C20.9241 12.3745 21 12.1911 21 12C21 11.8089 20.9241 11.6255 20.7889 11.4904C20.6538 11.3552 20.4704 11.2793 20.2793 11.2793H18.3984V10.4004H20.2793ZM20.2793 9.45117C20.3399 9.45117 20.398 9.47525 20.4409 9.5181C20.4837 9.56096 20.5078 9.61908 20.5078 9.67969C20.5078 9.74029 20.4837 9.79842 20.4409 9.84127C20.398 9.88413 20.3399 9.9082 20.2793 9.9082H18.3984V9.45117H20.2793ZM20.2793 7.13086C20.3399 7.13086 20.398 7.15494 20.4409 7.19779C20.4837 7.24065 20.5078 7.29877 20.5078 7.35938C20.5078 7.41998 20.4837 7.4781 20.4409 7.52096C20.398 7.56381 20.3399 7.58789 20.2793 7.58789H18.3984V7.13086H20.2793ZM16.4121 3.7207C16.4121 3.6601 16.4362 3.60197 16.479 3.55912C16.5219 3.51626 16.58 3.49219 16.6406 3.49219C16.7012 3.49219 16.7594 3.51626 16.8022 3.55912C16.8451 3.60197 16.8691 3.6601 16.8691 3.7207V5.60156H16.4121V3.7207ZM14.0918 3.7207C14.0918 3.6601 14.1159 3.60197 14.1587 3.55912C14.2016 3.51626 14.2597 3.49219 14.3203 3.49219C14.3809 3.49219 14.439 3.51626 14.4819 3.55912C14.5248 3.60197 14.5488 3.6601 14.5488 3.7207V5.60156H14.0918V3.7207ZM11.7715 3.7207C11.7715 3.6601 11.7956 3.60197 11.8384 3.55912C11.8813 3.51626 11.9394 3.49219 12 3.49219C12.0606 3.49219 12.1187 3.51626 12.1616 3.55912C12.2044 3.60197 12.2285 3.6601 12.2285 3.7207V5.60156H11.7715V3.7207ZM9.45117 3.7207C9.45117 3.6601 9.47525 3.60197 9.5181 3.55912C9.56096 3.51626 9.61908 3.49219 9.67969 3.49219C9.74029 3.49219 9.79842 3.51626 9.84127 3.55912C9.88413 3.60197 9.9082 3.6601 9.9082 3.7207V5.60156H9.45117V3.7207ZM7.13086 3.7207C7.13086 3.6601 7.15494 3.60197 7.19779 3.55912C7.24065 3.51626 7.29877 3.49219 7.35938 3.49219C7.41998 3.49219 7.4781 3.51626 7.52096 3.55912C7.56381 3.60197 7.58789 3.6601 7.58789 3.7207V5.60156H7.13086V3.7207ZM3.7207 7.58789C3.6601 7.58789 3.60197 7.56381 3.55912 7.52096C3.51626 7.4781 3.49219 7.41998 3.49219 7.35938C3.49219 7.29877 3.51626 7.24065 3.55912 7.19779C3.60197 7.15494 3.6601 7.13086 3.7207 7.13086H5.60156V7.58789H3.7207ZM3.7207 9.9082C3.6601 9.9082 3.60197 9.88413 3.55912 9.84127C3.51626 9.79842 3.49219 9.74029 3.49219 9.67969C3.49219 9.61908 3.51626 9.56096 3.55912 9.5181C3.60197 9.47525 3.6601 9.45117 3.7207 9.45117H5.60156V9.9082H3.7207ZM3.7207 12.2285C3.6601 12.2285 3.60197 12.2044 3.55912 12.1616C3.51626 12.1187 3.49219 12.0606 3.49219 12C3.49219 11.9394 3.51626 11.8813 3.55912 11.8384C3.60197 11.7956 3.6601 11.7715 3.7207 11.7715H5.60156V12.2285H3.7207ZM3.7207 14.5488C3.6601 14.5488 3.60197 14.5248 3.55912 14.4819C3.51626 14.439 3.49219 14.3809 3.49219 14.3203C3.49219 14.2597 3.51626 14.2016 3.55912 14.1587C3.60197 14.1159 3.6601 14.0918 3.7207 14.0918H5.60156V14.5488H3.7207ZM3.7207 16.8691C3.6601 16.8691 3.60197 16.8451 3.55912 16.8022C3.51626 16.7594 3.49219 16.7012 3.49219 16.6406C3.49219 16.58 3.51626 16.5219 3.55912 16.479C3.60197 16.4362 3.6601 16.4121 3.7207 16.4121H5.60156V16.8691H3.7207ZM7.58789 20.2793C7.58789 20.3399 7.56381 20.398 7.52096 20.4409C7.4781 20.4837 7.41998 20.5078 7.35938 20.5078C7.29877 20.5078 7.24065 20.4837 7.19779 20.4409C7.15494 20.398 7.13086 20.3399 7.13086 20.2793V18.3984H7.58789V20.2793ZM9.9082 20.2793C9.9082 20.3399 9.88413 20.398 9.84127 20.4409C9.79842 20.4837 9.74029 20.5078 9.67969 20.5078C9.61908 20.5078 9.56096 20.4837 9.5181 20.4409C9.47525 20.398 9.45117 20.3399 9.45117 20.2793V18.3984H9.9082V20.2793ZM12.2285 20.2793C12.2285 20.3399 12.2044 20.398 12.1616 20.4409C12.1187 20.4837 12.0606 20.5078 12 20.5078C11.9394 20.5078 11.8813 20.4837 11.8384 20.4409C11.7956 20.398 11.7715 20.3399 11.7715 20.2793V18.3984H12.2285V20.2793ZM14.5488 20.2793C14.5488 20.3399 14.5248 20.398 14.4819 20.4409C14.439 20.4837 14.3809 20.5078 14.3203 20.5078C14.2597 20.5078 14.2016 20.4837 14.1587 20.4409C14.1159 20.398 14.0918 20.3399 14.0918 20.2793V18.3984H14.5488V20.2793ZM16.8691 20.2793C16.8691 20.3399 16.8451 20.398 16.8022 20.4409C16.7594 20.4837 16.7012 20.5078 16.6406 20.5078C16.58 20.5078 16.5219 20.4837 16.479 20.4409C16.4362 20.398 16.4121 20.3399 16.4121 20.2793V18.3984H16.8691V20.2793ZM17.9062 17.9062H6.09375V6.09375H17.9062V17.9062ZM20.2793 16.4121C20.3399 16.4121 20.398 16.4362 20.4409 16.479C20.4837 16.5219 20.5078 16.58 20.5078 16.6406C20.5078 16.7012 20.4837 16.7594 20.4409 16.8022C20.398 16.8451 20.3399 16.8691 20.2793 16.8691H18.3984V16.4121H20.2793ZM20.2793 14.0918C20.3399 14.0918 20.398 14.1159 20.4409 14.1587C20.4837 14.2016 20.5078 14.2597 20.5078 14.3203C20.5078 14.3809 20.4837 14.439 20.4409 14.4819C20.398 14.5248 20.3399 14.5488 20.2793 14.5488H18.3984V14.0918H20.2793ZM20.2793 11.7715C20.3399 11.7715 20.398 11.7956 20.4409 11.8384C20.4837 11.8813 20.5078 11.9394 20.5078 12C20.5078 12.0606 20.4837 12.1187 20.4409 12.1616C20.398 12.2044 20.3399 12.2285 20.2793 12.2285H18.3984V11.7715H20.2793Z" fill="white"/>
<path d="M16.7461 7.57031C16.9208 7.57031 17.0625 7.42865 17.0625 7.25391C17.0625 7.07916 16.9208 6.9375 16.7461 6.9375C16.5713 6.9375 16.4297 7.07916 16.4297 7.25391C16.4297 7.42865 16.5713 7.57031 16.7461 7.57031Z" fill="white"/>
<path d="M7.25391 17.0625C7.42865 17.0625 7.57031 16.9208 7.57031 16.7461C7.57031 16.5713 7.42865 16.4297 7.25391 16.4297C7.07916 16.4297 6.9375 16.5713 6.9375 16.7461C6.9375 16.9208 7.07916 17.0625 7.25391 17.0625Z" fill="white"/>
<path d="M11.9985 9.17542C11.4399 9.17542 10.8939 9.34105 10.4295 9.65137C9.96503 9.9617 9.60305 10.4028 9.38929 10.9188C9.17554 11.4349 9.11961 12.0027 9.22858 12.5506C9.33755 13.0984 9.60653 13.6016 10.0015 13.9966C10.3965 14.3915 10.8997 14.6605 11.4475 14.7695C11.9954 14.8785 12.5632 14.8225 13.0793 14.6088C13.5953 14.395 14.0364 14.033 14.3467 13.5686C14.657 13.1042 14.8227 12.5582 14.8227 11.9996C14.8218 11.2508 14.524 10.533 13.9945 10.0035C13.4651 9.47409 12.7472 9.17627 11.9985 9.17542V9.17542ZM11.9985 14.3317C11.5373 14.3317 11.0864 14.195 10.7029 13.9387C10.3194 13.6825 10.0205 13.3183 9.84403 12.8922C9.66752 12.4661 9.62133 11.9972 9.7113 11.5448C9.80127 11.0925 10.0234 10.677 10.3495 10.3508C10.6756 10.0247 11.0911 9.80257 11.5435 9.71257C11.9958 9.62257 12.4647 9.66873 12.8908 9.84522C13.3169 10.0217 13.6811 10.3206 13.9374 10.704C14.1937 11.0875 14.3304 11.5384 14.3305 11.9996C14.3298 12.6179 14.0839 13.2107 13.6468 13.6479C13.2096 14.085 12.6168 14.3309 11.9985 14.3316V14.3317Z" fill="white"/>
</svg>
