<svg width="24" height="24" viewBox="0 0 24 24" fill="none" xmlns="http://www.w3.org/2000/svg">
<path d="M23.8672 9.09175C23.9084 9.06123 23.9419 9.02149 23.9649 8.97571C23.988 8.92993 24 8.87938 24 8.82812V7.32812C24 7.2411 23.9654 7.15764 23.9039 7.09611C23.8424 7.03457 23.7589 7 23.6719 7H0.328125C0.241101 7 0.157641 7.03457 0.0961056 7.09611C0.0345702 7.15764 0 7.2411 0 7.32812L0 8.82812C-1.04154e-06 8.87938 0.0120062 8.92993 0.0350591 8.97571C0.0581121 9.02149 0.0915697 9.06123 0.13275 9.09175L1.26562 9.93156V11.6313L0.13275 12.4714C0.0915697 12.502 0.0581121 12.5417 0.0350591 12.5875C0.0120062 12.6333 -1.04154e-06 12.6838 0 12.7351L0 14.7038C0 14.7908 0.0345702 14.8743 0.0961056 14.9358C0.157641 14.9974 0.241101 15.0319 0.328125 15.0319H1.73438V16.6094C1.73438 16.6964 1.76895 16.7799 1.83048 16.8414C1.89202 16.9029 1.97548 16.9375 2.0625 16.9375H7.90631C7.99334 16.9375 8.0768 16.9029 8.13833 16.8414C8.19987 16.7799 8.23444 16.6964 8.23444 16.6094V15.0312H9.42188V16.6094C9.42188 16.6964 9.45644 16.7799 9.51798 16.8414C9.57952 16.9029 9.66298 16.9375 9.75 16.9375H21.9375C22.0245 16.9375 22.108 16.9029 22.1695 16.8414C22.2311 16.7799 22.2656 16.6964 22.2656 16.6094V15.0312H23.6719C23.7589 15.0312 23.8424 14.9966 23.9039 14.9351C23.9654 14.8735 24 14.7901 24 14.7031V12.7343C24 12.6831 23.988 12.6325 23.9649 12.5867C23.9419 12.541 23.9084 12.5012 23.8672 12.4707L22.7344 11.6313V9.93156L23.8672 9.09175ZM7.57819 16.2812H2.39062V15.0312H7.57819V16.2812ZM21.6094 16.2812H10.0781V15.0312H21.6094V16.2812ZM22.2109 12.0604L23.3438 12.9003V14.3749H0.65625V12.9003L1.78912 12.0604C1.83031 12.0299 1.86376 11.9902 1.88682 11.9444C1.90987 11.8986 1.92188 11.8481 1.92188 11.7968V9.76638C1.92188 9.71512 1.90987 9.66457 1.88682 9.61879C1.86376 9.57301 1.83031 9.53327 1.78912 9.50275L0.65625 8.66294V7.65625H23.3438V8.66294L22.2109 9.50275C22.1697 9.53327 22.1362 9.57301 22.1132 9.61879C22.0901 9.66457 22.0781 9.71512 22.0781 9.76638V11.7968C22.0781 11.8481 22.0901 11.8986 22.1132 11.9444C22.1362 11.9902 22.1697 12.0299 22.2109 12.0604Z" fill="white"/>
<path d="M5.49994 8.62582H3.46875C3.38173 8.62582 3.29827 8.66039 3.23673 8.72193C3.1752 8.78346 3.14063 8.86692 3.14062 8.95395V12.7351C3.14063 12.8221 3.1752 12.9056 3.23673 12.9671C3.29827 13.0286 3.38173 13.0632 3.46875 13.0632H5.49994C5.58696 13.0632 5.67042 13.0286 5.73196 12.9671C5.79349 12.9056 5.82806 12.8221 5.82806 12.7351V8.95395C5.82806 8.86692 5.79349 8.78346 5.73196 8.72193C5.67042 8.66039 5.58696 8.62582 5.49994 8.62582V8.62582ZM5.17181 12.4069H3.79688V9.28207H5.17181V12.4069Z" fill="white"/>
<path d="M9.164 8.62582H7.13281C7.04579 8.62582 6.96233 8.66039 6.90079 8.72193C6.83926 8.78346 6.80469 8.86692 6.80469 8.95395V12.7351C6.80469 12.8221 6.83926 12.9056 6.90079 12.9671C6.96233 13.0286 7.04579 13.0632 7.13281 13.0632H9.164C9.25102 13.0632 9.33448 13.0286 9.39602 12.9671C9.45755 12.9056 9.49212 12.8221 9.49212 12.7351V8.95395C9.49212 8.86692 9.45755 8.78346 9.39602 8.72193C9.33448 8.66039 9.25102 8.62582 9.164 8.62582V8.62582ZM8.83587 12.4069H7.46094V9.28207H8.83587V12.4069Z" fill="white"/>
<path d="M12.8282 8.62582H10.7969C10.7099 8.62582 10.6264 8.66039 10.5649 8.72193C10.5033 8.78346 10.4688 8.86692 10.4688 8.95395C10.4688 9.04097 10.5033 9.12443 10.5649 9.18597C10.6264 9.2475 10.7099 9.28207 10.7969 9.28207H12.8282C12.9153 9.28207 12.9987 9.2475 13.0603 9.18597C13.1218 9.12443 13.1564 9.04097 13.1564 8.95395C13.1564 8.86692 13.1218 8.78346 13.0603 8.72193C12.9987 8.66039 12.9153 8.62582 12.8282 8.62582V8.62582Z" fill="white"/>
<path d="M12.8282 10.5164H10.7969C10.7099 10.5164 10.6264 10.551 10.5649 10.6125C10.5033 10.674 10.4688 10.7575 10.4688 10.8445C10.4688 10.9315 10.5033 11.015 10.5649 11.0765C10.6264 11.1381 10.7099 11.1726 10.7969 11.1726H12.8282C12.9153 11.1726 12.9987 11.1381 13.0603 11.0765C13.1218 11.015 13.1564 10.9315 13.1564 10.8445C13.1564 10.7575 13.1218 10.674 13.0603 10.6125C12.9987 10.551 12.9153 10.5164 12.8282 10.5164Z" fill="white"/>
<path d="M12.8282 12.4069H10.7969C10.7099 12.4069 10.6264 12.4415 10.5649 12.503C10.5033 12.5646 10.4688 12.648 10.4688 12.735C10.4688 12.8221 10.5033 12.9055 10.5649 12.9671C10.6264 13.0286 10.7099 13.0632 10.7969 13.0632H12.8282C12.9153 13.0632 12.9987 13.0286 13.0603 12.9671C13.1218 12.9055 13.1564 12.8221 13.1564 12.735C13.1564 12.648 13.1218 12.5646 13.0603 12.503C12.9987 12.4415 12.9153 12.4069 12.8282 12.4069Z" fill="white"/>
<path d="M16.4921 8.62582H14.4609C14.3739 8.62582 14.2905 8.66039 14.2289 8.72193C14.1674 8.78346 14.1328 8.86692 14.1328 8.95395V12.7351C14.1328 12.8221 14.1674 12.9056 14.2289 12.9671C14.2905 13.0286 14.3739 13.0632 14.4609 13.0632H16.4921C16.5791 13.0632 16.6626 13.0286 16.7241 12.9671C16.7857 12.9056 16.8202 12.8221 16.8202 12.7351V8.95395C16.8202 8.86692 16.7857 8.78346 16.7241 8.72193C16.6626 8.66039 16.5791 8.62582 16.4921 8.62582V8.62582ZM16.164 12.4069H14.7891V9.28207H16.164V12.4069Z" fill="white"/>
<path d="M20.1562 8.62582H18.125C18.038 8.62582 17.9545 8.66039 17.893 8.72193C17.8314 8.78346 17.7969 8.86692 17.7969 8.95395V12.7351C17.7969 12.8221 17.8314 12.9056 17.893 12.9671C17.9545 13.0286 18.038 13.0632 18.125 13.0632H20.1562C20.2432 13.0632 20.3267 13.0286 20.3882 12.9671C20.4497 12.9056 20.4843 12.8221 20.4843 12.7351V8.95395C20.4843 8.86692 20.4497 8.78346 20.3882 8.72193C20.3267 8.66039 20.2432 8.62582 20.1562 8.62582V8.62582ZM19.8281 12.4069H18.4531V9.28207H19.8281V12.4069Z" fill="white"/>
</svg>
